<svg width="28" height="28" viewBox="0 0 28 28" fill="none" xmlns="http://www.w3.org/2000/svg">
<mask id="mask0_19_46" style="mask-type:alpha" maskUnits="userSpaceOnUse" x="0" y="0" width="28" height="28">
<rect width="28" height="28" fill="#D9D9D9"/>
</mask>
<g mask="url(#mask0_19_46)">
<path d="M5.83333 24.5C5.19167 24.5 4.64236 24.2715 4.18542 23.8146C3.72847 23.3576 3.5 22.8083 3.5 22.1667V5.83333C3.5 5.19167 3.72847 4.64236 4.18542 4.18542C4.64236 3.72847 5.19167 3.5 5.83333 3.5H22.1667C22.8083 3.5 23.3576 3.72847 23.8146 4.18542C24.2715 4.64236 24.5 5.19167 24.5 5.83333V22.1667C24.5 22.8083 24.2715 23.3576 23.8146 23.8146C23.3576 24.2715 22.8083 24.5 22.1667 24.5H5.83333ZM9.91667 16.3333H11.0833C11.4139 16.3333 11.691 16.2215 11.9146 15.9979C12.1382 15.7743 12.25 15.4972 12.25 15.1667V14.5833C12.25 14.4278 12.1917 14.2917 12.075 14.175C11.9583 14.0583 11.8222 14 11.6667 14C11.5111 14 11.375 14.0583 11.2583 14.175C11.1417 14.2917 11.0833 14.4278 11.0833 14.5833V15.1667H9.91667V12.8333H11.6667C11.8222 12.8333 11.9583 12.775 12.075 12.6583C12.1917 12.5417 12.25 12.4056 12.25 12.25C12.25 12.0944 12.1917 11.9583 12.075 11.8417C11.9583 11.725 11.8222 11.6667 11.6667 11.6667H9.91667C9.58611 11.6667 9.30903 11.7785 9.08542 12.0021C8.86181 12.2257 8.75 12.5028 8.75 12.8333V15.1667C8.75 15.4972 8.86181 15.7743 9.08542 15.9979C9.30903 16.2215 9.58611 16.3333 9.91667 16.3333ZM14 16.3333C14.1556 16.3333 14.2917 16.275 14.4083 16.1583C14.525 16.0417 14.5833 15.9056 14.5833 15.75V12.25C14.5833 12.0944 14.525 11.9583 14.4083 11.8417C14.2917 11.725 14.1556 11.6667 14 11.6667C13.8444 11.6667 13.7083 11.725 13.5917 11.8417C13.475 11.9583 13.4167 12.0944 13.4167 12.25V15.75C13.4167 15.9056 13.475 16.0417 13.5917 16.1583C13.7083 16.275 13.8444 16.3333 14 16.3333ZM16.3333 16.3333C16.4889 16.3333 16.625 16.275 16.7417 16.1583C16.8583 16.0417 16.9167 15.9056 16.9167 15.75V14.5833H18.0833C18.2389 14.5833 18.375 14.525 18.4917 14.4083C18.6083 14.2917 18.6667 14.1556 18.6667 14C18.6667 13.8444 18.6083 13.7083 18.4917 13.5917C18.375 13.475 18.2389 13.4167 18.0833 13.4167H16.9167V12.8333H18.6667C18.8222 12.8333 18.9583 12.775 19.075 12.6583C19.1917 12.5417 19.25 12.4056 19.25 12.25C19.25 12.0944 19.1917 11.9583 19.075 11.8417C18.9583 11.725 18.8222 11.6667 18.6667 11.6667H16.3333C16.1778 11.6667 16.0417 11.725 15.925 11.8417C15.8083 11.9583 15.75 12.0944 15.75 12.25V15.75C15.75 15.9056 15.8083 16.0417 15.925 16.1583C16.0417 16.275 16.1778 16.3333 16.3333 16.3333Z" fill="#A7A7A7"/>
</g>
</svg>
