<svg width="28" height="28" viewBox="0 0 28 28" fill="none" xmlns="http://www.w3.org/2000/svg">
<mask id="mask0_19_49" style="mask-type:alpha" maskUnits="userSpaceOnUse" x="0" y="0" width="28" height="28">
<rect width="28" height="28" fill="#D9D9D9"/>
</mask>
<g mask="url(#mask0_19_49)">
<path d="M13.9999 20.4167C15.0305 20.4167 16.0076 20.1931 16.9312 19.7458C17.8548 19.2986 18.5985 18.6472 19.1624 17.7917C19.3763 17.4611 19.4055 17.1354 19.2499 16.8146C19.0944 16.4937 18.8416 16.3333 18.4916 16.3333C18.336 16.3333 18.1951 16.3674 18.0687 16.4354C17.9423 16.5035 17.8402 16.6056 17.7624 16.7417C17.3152 17.3444 16.761 17.816 16.0999 18.1562C15.4388 18.4965 14.7388 18.6667 13.9999 18.6667C13.261 18.6667 12.561 18.4965 11.8999 18.1562C11.2388 17.816 10.6846 17.3444 10.2374 16.7417C10.1402 16.6056 10.0284 16.5035 9.902 16.4354C9.77561 16.3674 9.63464 16.3333 9.47909 16.3333C9.12909 16.3333 8.87631 16.4889 8.72075 16.8C8.5652 17.1111 8.59436 17.4222 8.80825 17.7333C9.37214 18.6083 10.1159 19.2743 11.0395 19.7312C11.9631 20.1882 12.9499 20.4167 13.9999 20.4167ZM18.0833 12.8333C18.5694 12.8333 18.9826 12.6632 19.3228 12.3229C19.6631 11.9826 19.8333 11.5694 19.8333 11.0833C19.8333 10.5972 19.6631 10.184 19.3228 9.84375C18.9826 9.50347 18.5694 9.33333 18.0833 9.33333C17.5971 9.33333 17.1839 9.50347 16.8437 9.84375C16.5034 10.184 16.3333 10.5972 16.3333 11.0833C16.3333 11.5694 16.5034 11.9826 16.8437 12.3229C17.1839 12.6632 17.5971 12.8333 18.0833 12.8333ZM9.91659 12.8333C10.4027 12.8333 10.8159 12.6632 11.1562 12.3229C11.4964 11.9826 11.6666 11.5694 11.6666 11.0833C11.6666 10.5972 11.4964 10.184 11.1562 9.84375C10.8159 9.50347 10.4027 9.33333 9.91659 9.33333C9.43047 9.33333 9.01728 9.50347 8.677 9.84375C8.33672 10.184 8.16659 10.5972 8.16659 11.0833C8.16659 11.5694 8.33672 11.9826 8.677 12.3229C9.01728 12.6632 9.43047 12.8333 9.91659 12.8333ZM13.9999 25.6667C12.386 25.6667 10.8694 25.3604 9.44992 24.7479C8.03047 24.1354 6.79575 23.3042 5.74575 22.2542C4.69575 21.2042 3.8645 19.9694 3.252 18.55C2.6395 17.1306 2.33325 15.6139 2.33325 14C2.33325 12.3861 2.6395 10.8694 3.252 9.45C3.8645 8.03055 4.69575 6.79583 5.74575 5.74583C6.79575 4.69583 8.03047 3.86458 9.44992 3.25208C10.8694 2.63958 12.386 2.33333 13.9999 2.33333C15.6138 2.33333 17.1305 2.63958 18.5499 3.25208C19.9694 3.86458 21.2041 4.69583 22.2541 5.74583C23.3041 6.79583 24.1353 8.03055 24.7478 9.45C25.3603 10.8694 25.6666 12.3861 25.6666 14C25.6666 15.6139 25.3603 17.1306 24.7478 18.55C24.1353 19.9694 23.3041 21.2042 22.2541 22.2542C21.2041 23.3042 19.9694 24.1354 18.5499 24.7479C17.1305 25.3604 15.6138 25.6667 13.9999 25.6667Z" fill="#A7A7A7"/>
</g>
</svg>
