<svg width="62" height="62" viewBox="0 0 62 62" fill="none" xmlns="http://www.w3.org/2000/svg">
<g clip-path="url(#clip0_19_6)">
<path d="M59.4167 38.75H57.6936C57.0478 38.75 56.4071 38.7991 55.769 38.8973L37.5669 25.2469L41.9275 21.0723C42.9583 20.0854 42.9944 18.4476 42.0076 17.4194C41.0182 16.3887 39.3804 16.3551 38.3548 17.3393L27.5745 27.6598C27.0372 28.1971 26.3061 28.4735 25.5389 28.4089C24.769 28.3469 24.0922 27.9568 23.6298 27.311C22.9219 26.3293 23.1389 24.7923 24.0638 23.8648L36.2132 12.4233C38.5149 10.261 42.1135 9.73143 44.9294 11.1445L50.9124 14.136C52.6949 15.0273 54.6944 15.4974 56.6861 15.4974H59.4141C60.8427 15.4974 61.9974 14.3427 61.9974 12.9141C61.9974 11.4855 60.8427 10.3308 59.4141 10.3308H56.6861C55.49 10.3308 54.2888 10.0492 53.2193 9.51443L47.2414 6.52293C42.5294 4.16434 36.5129 5.04009 32.6689 8.66193L31.0724 10.1654L29.264 8.51726C26.8899 6.35501 23.8158 5.16409 20.5065 5.16409C18.5148 5.16409 16.5282 5.63426 14.7534 6.52034L8.7756 9.51184C7.70352 10.0466 6.50227 10.3282 5.30619 10.3282H2.58335C1.15477 10.3282 1.9857e-05 11.4829 1.9857e-05 12.9115C1.9857e-05 14.3401 1.15477 15.4948 2.58335 15.4948H5.31135C7.3031 15.4948 9.3026 15.0221 11.0877 14.1334L17.0707 11.1419C19.7109 9.81409 23.4205 10.1732 25.7869 12.3354L27.3033 13.7175L20.4678 20.1552C17.6959 22.9245 17.2541 27.3033 19.4396 30.3283C20.7829 32.1961 23.4515 33.5808 25.7533 33.5808C27.8019 33.5808 29.7678 32.7748 31.1886 31.3513L33.7874 28.8636L50.1813 41.1577C50.1012 41.2145 34.1698 53.1598 34.1698 53.1598C32.302 54.6117 29.6954 54.6117 27.7889 53.1314L12.0539 41.3308C9.83477 39.6645 7.08094 38.7474 4.30385 38.7474H2.58077C1.15219 38.7474 -0.00256348 39.9022 -0.00256348 41.3308C-0.00256348 42.7593 1.15219 43.9141 2.58077 43.9141H4.30385C5.9701 43.9141 7.62085 44.4643 8.95385 45.4641L24.6528 57.2389C26.5257 58.6959 28.7706 59.4244 31.0104 59.4244C33.2372 59.4244 35.4614 58.7037 37.3059 57.2673L53.0462 45.4667C54.3766 44.4669 56.0274 43.9167 57.6936 43.9167H59.4167C60.8453 43.9167 62 42.7619 62 41.3333C62 39.9048 60.8453 38.75 59.4167 38.75Z" fill="black"/>
</g>
<defs>
<clipPath id="clip0_19_6">
<rect width="62" height="62" fill="white"/>
</clipPath>
</defs>
</svg>
