<svg width="12" height="21" viewBox="0 0 12 21" fill="none" xmlns="http://www.w3.org/2000/svg">
<path d="M7.656 3.42857C8.35323 3.42925 9.02172 3.70653 9.51474 4.19955C10.0078 4.69257 10.285 5.36105 10.2857 6.05829C10.2857 6.28561 10.376 6.50363 10.5368 6.66438C10.6975 6.82512 10.9155 6.91543 11.1429 6.91543C11.3702 6.91543 11.5882 6.82512 11.749 6.66438C11.9097 6.50363 12 6.28561 12 6.05829V6C12 5.98371 12 5.96914 12 5.95286C11.9714 4.81948 11.5013 3.7421 10.6898 2.95033C9.87834 2.15857 8.78974 1.71504 7.656 1.71429H6.85714V0.857143C6.85714 0.629814 6.76684 0.411797 6.60609 0.251051C6.44535 0.0903059 6.22733 0 6 0C5.77267 0 5.55465 0.0903059 5.39391 0.251051C5.23316 0.411797 5.14286 0.629814 5.14286 0.857143V1.71429H4.344C3.31313 1.71539 2.31625 2.08306 1.53154 2.75158C0.746828 3.4201 0.225437 4.34591 0.0605597 5.36351C-0.104317 6.38111 0.0980664 7.42418 0.631536 8.30628C1.16501 9.18838 1.99479 9.85202 2.97257 10.1786L5.14286 10.9029V17.1429H4.344C3.64677 17.1422 2.97828 16.8649 2.48526 16.3719C1.99224 15.8789 1.71497 15.2104 1.71429 14.5131C1.71429 14.2858 1.62398 14.0678 1.46323 13.9071C1.30249 13.7463 1.08447 13.656 0.857143 13.656C0.629814 13.656 0.411797 13.7463 0.251051 13.9071C0.090306 14.0678 0 14.2858 0 14.5131V14.5714C0 14.5877 0 14.6023 0 14.6186C0.0286057 15.7519 0.498739 16.8293 1.3102 17.6211C2.12166 18.4129 3.21026 18.8564 4.344 18.8571H5.14286V19.7143C5.14286 19.9416 5.23316 20.1596 5.39391 20.3204C5.55465 20.4811 5.77267 20.5714 6 20.5714C6.22733 20.5714 6.44535 20.4811 6.60609 20.3204C6.76684 20.1596 6.85714 19.9416 6.85714 19.7143V18.8571H7.656C8.68687 18.856 9.68375 18.4884 10.4685 17.8198C11.2532 17.1513 11.7746 16.2255 11.9394 15.2079C12.1043 14.1903 11.9019 13.1473 11.3685 12.2651C10.835 11.383 10.0052 10.7194 9.02743 10.3929L6.85714 9.66857V3.42857H7.656ZM8.48743 12.018C9.08008 12.2153 9.58317 12.617 9.90662 13.1514C10.2301 13.6857 10.3528 14.3177 10.2527 14.9343C10.1527 15.5508 9.8365 16.1116 9.36071 16.5163C8.88491 16.921 8.28061 17.1431 7.656 17.1429H6.85714V11.4746L8.48743 12.018ZM5.14286 9.09686L3.51429 8.55343C2.92178 8.35622 2.41878 7.9546 2.09532 7.42044C1.77185 6.88628 1.64903 6.25445 1.74883 5.63801C1.84863 5.02157 2.16454 4.46076 2.64003 4.05595C3.11551 3.65114 3.71953 3.42875 4.344 3.42857H5.14286V9.09686Z" fill="black"/>
</svg>
